# xmcd CD database file
#
# Track frame offsets:
#	150
#	16490
#	32522
#	51255
#	67092
#	86687
#	101980
#	116970
#	138502
#	150440
#	168705
#	184460
#
# Disc length: 2676 seconds
#
# Revision: 2
# Processed by: cddbd v1.5.1PL2 Copyright (c) Steve Scherf et al.
# Submitted via: CDex 1.51
#
DISCID=af0a720c
DTITLE=Danny Wright - Autumn Dreams  [CD)
DYEAR=1992
DGENRE=New Age
TTITLE0=New Beginning
TTITLE1=Autumn Dreams
TTITLE2=Little Bear
TTITLE3=Samantha's Theme
TTITLE4=First Snow
TTITLE5=Anne's Triumph
TTITLE6=Time Windows
TTITLE7=From Within
TTITLE8=Shell Island
TTITLE9=Nedeja
TTITLE10=Friends
TTITLE11=Guardian Angel
EXTD=YEAR: 1992
EXTT0=
EXTT1=
EXTT2=
EXTT3=
EXTT4=
EXTT5=
EXTT6=
EXTT7=
EXTT8=
EXTT9=
EXTT10=
EXTT11=
PLAYORDER=
